<?xml version="1.0" standalone="no"?>
<!DOCTYPE svg PUBLIC "-//W3C//DTD SVG 20010904//EN"
 "http://www.w3.org/TR/2001/REC-SVG-20010904/DTD/svg10.dtd">
<svg version="1.0" xmlns="http://www.w3.org/2000/svg"
 width="512.000000pt" height="512.000000pt" viewBox="0 0 512.000000 512.000000"
 preserveAspectRatio="xMidYMid meet">

<g transform="translate(0.000000,512.000000) scale(0.100000,-0.100000)"
fill="#000000" stroke="none">
<path d="M0 5042 l0 -77 630 -630 c347 -346 630 -633 630 -637 0 -3 -37 -35
-81 -71 l-82 -65 -311 -4 c-308 -4 -312 -4 -391 -32 -181 -62 -309 -191 -371
-376 -18 -51 -19 -94 -19 -585 0 -519 0 -531 22 -600 43 -135 150 -265 273
-329 120 -63 152 -68 492 -73 l306 -5 803 -645 c442 -355 822 -657 844 -672
134 -91 299 -100 452 -26 126 62 219 190 242 335 7 38 11 253 11 515 l0 450
750 -750 750 -750 -2477 -5 -2478 -5 2563 -3 2562 -2 -2 2563 c-2 1911 -4
2264 -8 1387 -3 -646 -9 -1148 -13 -1116 -28 211 -131 480 -261 681 -51 78
-183 242 -223 278 -51 45 -131 37 -163 -16 -37 -61 -28 -89 66 -190 175 -190
306 -450 365 -727 33 -152 33 -448 0 -600 -57 -267 -166 -494 -328 -683 -107
-125 -123 -148 -123 -175 0 -42 34 -88 73 -101 55 -18 93 4 181 105 214 244
356 543 411 864 11 63 13 -97 14 -1045 l1 -1120 -830 830 -830 830 0 1370 c0
897 -4 1392 -11 1435 -30 194 -183 347 -378 381 -77 14 -175 0 -253 -35 -35
-15 -287 -211 -728 -565 l-675 -541 -655 655 -655 655 -48 0 -47 0 0 -78z
m3110 -328 c28 -15 62 -43 76 -62 56 -73 54 -20 54 -1401 l0 -1276 -840 840
c-462 462 -839 843 -838 847 3 6 1181 956 1284 1034 77 59 177 66 264 18z
m128 -3574 l-3 -585 -31 -54 c-37 -67 -92 -108 -164 -123 -115 -23 -76 -50
-965 663 -440 353 -810 649 -822 658 l-22 16 0 845 0 845 92 72 92 73 913
-913 913 -912 -3 -585z m-2218 1419 l0 -790 -262 3 c-294 5 -313 8 -403 76
-27 21 -65 59 -83 86 -62 93 -63 101 -60 648 l3 493 33 67 c51 104 149 179
259 198 27 4 153 8 281 9 l232 1 0 -791z"/>
<path d="M4024 3352 c-36 -23 -59 -71 -50 -107 4 -14 34 -58 67 -98 150 -178
219 -364 219 -587 0 -224 -69 -409 -219 -588 -34 -40 -64 -85 -67 -101 -8 -38
18 -87 57 -107 50 -25 88 -12 151 54 111 117 207 292 255 467 25 91 28 115 28
275 0 160 -3 184 -28 275 -48 177 -156 371 -265 478 -58 57 -101 68 -148 39z"/>
</g>
</svg>
