<?xml version="1.0" standalone="no"?>
<!DOCTYPE svg PUBLIC "-//W3C//DTD SVG 20010904//EN"
 "http://www.w3.org/TR/2001/REC-SVG-20010904/DTD/svg10.dtd">
<svg version="1.0" xmlns="http://www.w3.org/2000/svg"
 width="512.000000pt" height="512.000000pt" viewBox="0 0 512.000000 512.000000"
 preserveAspectRatio="xMidYMid meet">

<g transform="translate(0.000000,512.000000) scale(0.100000,-0.100000)"
fill="#000000" stroke="none">
<path d="M2907 4949 c-26 -5 -71 -20 -100 -33 -34 -15 -337 -252 -881 -688
l-829 -666 -311 -4 c-308 -4 -312 -4 -391 -32 -181 -62 -309 -191 -371 -376
-18 -51 -19 -94 -19 -585 0 -519 0 -531 22 -600 43 -135 150 -265 273 -329
120 -63 152 -68 492 -73 l306 -5 803 -645 c442 -355 822 -657 844 -672 134
-91 299 -100 452 -26 126 62 219 190 242 335 15 90 15 3930 0 4020 -23 146
-115 272 -243 335 -105 52 -185 64 -289 44z m204 -235 c62 -34 105 -91 119
-158 8 -36 10 -621 8 -2026 l-3 -1975 -31 -54 c-37 -67 -92 -108 -164 -123
-115 -23 -76 -50 -965 663 -440 353 -810 649 -822 658 l-22 16 0 845 0 845
447 357 c246 196 616 492 822 658 273 219 387 305 420 315 60 20 130 12 191
-21z m-2091 -2155 l0 -790 -262 3 c-294 5 -313 8 -403 76 -27 21 -65 59 -83
86 -62 93 -63 101 -60 648 l3 493 33 67 c51 104 149 179 259 198 27 4 153 8
281 9 l232 1 0 -791z"/>
<path d="M4502 3818 c-36 -10 -72 -57 -72 -96 0 -34 16 -59 86 -135 175 -190
306 -450 365 -727 33 -152 33 -448 0 -600 -57 -267 -166 -494 -328 -683 -136
-159 -142 -171 -104 -233 27 -44 77 -60 124 -41 72 31 262 278 354 462 133
264 187 495 187 795 0 96 -6 211 -13 255 -41 255 -132 494 -265 700 -51 78
-183 242 -223 278 -29 25 -73 35 -111 25z"/>
<path d="M4024 3352 c-36 -23 -59 -71 -50 -107 4 -14 34 -58 67 -98 150 -178
219 -364 219 -587 0 -224 -69 -409 -219 -588 -34 -40 -64 -85 -67 -101 -8 -38
18 -87 57 -107 50 -25 88 -12 151 54 111 117 207 292 255 467 25 91 28 115 28
275 0 160 -3 184 -28 275 -48 177 -156 371 -265 478 -58 57 -101 68 -148 39z"/>
</g>
</svg>
